<svg xmlns="http://www.w3.org/2000/svg" version="1.1" xmlns:xlink="http://www.w3.org/1999/xlink" xmlns:svgjs="http://svgjs.dev/svgjs" width="1500" height="1500" viewBox="0 0 1500 1500"><rect width="1500" height="1500" fill="#000000"></rect><g transform="matrix(0.6666666666666666,0,0,0.6666666666666666,249.39393939393938,604.118600703348)"><svg viewBox="0 0 396 115" data-background-color="#f8f9f9" preserveAspectRatio="xMidYMid meet" height="435" width="1500" xmlns="http://www.w3.org/2000/svg" xmlns:xlink="http://www.w3.org/1999/xlink"><g id="tight-bounds" transform="matrix(1,0,0,1,0.2400000000000091,0.3495204107413201)"><svg viewBox="0 0 395.52 106.31308426661579" height="106.31308426661579" width="395.52"><g><svg viewBox="0 0 395.52 106.31308426661579" height="106.31308426661579" width="395.52"><g><svg viewBox="0 0 395.52 106.31308426661579" height="106.31308426661579" width="395.52"><g id="textblocktransform"><svg viewBox="0 0 395.52 106.31308426661579" height="106.31308426661579" width="395.52" id="textblock"><g><rect width="395.52" height="88.94785327445574" fill="none" stroke-width="8.962371322224001" stroke="#ffffff" data-fill-palette-color="none" data-stroke-palette-color="tertiary"></rect><rect width="395.52" height="25.353105904061646" y="88.94785327445574" fill="#ffffff" data-fill-palette-color="tertiary"></rect></g><g><svg viewBox="0 0 395.52 87.94785327445574" height="87.94785327445574" width="395.52"><g transform="matrix(1,0,0,1,23.461705032,23.461705032)"><svg width="348.596589936" viewBox="4.55 -36.35 313.52 36.9" height="41.024443210455736" data-palette-color="#000000"><path d="M20.85-15.4L9.1-15.4 9.1 0 4.55 0 4.55-35.8 21-35.8Q26.7-35.8 29.5-33L29.5-33Q31.95-30.55 31.95-26.2L31.95-26.2Q31.95-23.15 30.63-21.15 29.3-19.15 26.25-17.65L26.25-17.65Q28.7-16.7 29.85-15.1L29.85-15.1Q31-13.45 31.15-8.35L31.15-8.35Q31.25-4.6 31.63-3.33 32-2.05 33.3-1.15L33.3-1.15 33.3 0 27.8 0Q26.7-2.3 26.7-4.85L26.7-4.85 26.75-10.45Q26.75-11 26.3-12.15 25.85-13.3 25.45-13.8L25.45-13.8Q24.1-15.4 20.85-15.4L20.85-15.4ZM9.1-31.75L9.1-19.45 20.15-19.45Q27.2-19.45 27.2-25.6L27.2-25.6Q27.2-31.75 20.15-31.75L20.15-31.75 9.1-31.75ZM60.6-11.8L60.6-11.65 41.65-11.65Q41.7-8.35 43.05-6.4L43.05-6.4Q45.2-3.25 49.25-3.25L49.25-3.25Q54.25-3.25 56-8L56-8 60.1-8Q59.3-3.95 56.4-1.7 53.5 0.55 49.1 0.55L49.1 0.55Q43.25 0.55 40.15-3.45L40.15-3.45Q37.4-6.95 37.4-12.7L37.4-12.7Q37.4-19.35 41-23.05L41-23.05Q44.15-26.25 49.15-26.25L49.15-26.25Q52.8-26.25 55.57-24.5 58.35-22.75 59.55-19.7L59.55-19.7Q60.6-17.1 60.6-11.8L60.6-11.8ZM41.8-15L56.2-15Q56.2-18.35 54.22-20.43 52.25-22.5 49.15-22.5L49.15-22.5Q46-22.5 44.02-20.48 42.05-18.45 41.8-15L41.8-15ZM86.59-25.7L76.75 0 72.3 0 63.25-25.7 67.9-25.7 74.7-4.9 82-25.7 86.59-25.7ZM90.54-25.7L94.59-25.7 94.59 0 90.54 0 90.54-25.7ZM92.64-35.75L92.64-35.75Q93.69-35.75 94.42-35.02 95.14-34.3 95.14-33.3L95.14-33.3Q95.14-32.25 94.42-31.53 93.69-30.8 92.64-30.8L92.64-30.8Q91.64-30.8 90.92-31.53 90.19-32.25 90.19-33.3L90.19-33.3Q90.19-34.3 90.92-35.02 91.64-35.75 92.64-35.75ZM122.04-25.7L112.19 0 107.74 0 98.69-25.7 103.34-25.7 110.14-4.9 117.44-25.7 122.04-25.7ZM148.99-3.45L148.99-3.45 148.99-0.15Q147.29 0.45 146.34 0.45L146.34 0.45Q142.34 0.45 141.99-3.2L141.99-3.2Q139.24 0.55 133.24 0.55L133.24 0.55Q129.09 0.55 126.79-1.75L126.79-1.75Q124.79-3.75 124.79-6.9L124.79-6.9Q124.79-10.5 127.34-12.45L127.34-12.45Q128.79-13.55 133.39-14.6L133.39-14.6 141.79-16.5 141.84-18.65Q141.84-22.5 136.04-22.5L136.04-22.5Q130.49-22.5 130.09-18L130.09-18 125.94-18Q126.09-21.4 127.64-23.2L127.64-23.2Q130.29-26.25 136.24-26.25L136.24-26.25Q145.89-26.25 145.89-19.25L145.89-19.25 145.89-4.9Q145.89-3 147.54-3L147.54-3Q147.74-3 148.59-3.3L148.59-3.3Q148.89-3.4 148.99-3.45ZM141.84-8.65L141.84-13.15 135.24-11.45Q131.69-10.55 130.36-9.6 129.04-8.65 129.04-6.95L129.04-6.95Q129.04-3 134.14-3L134.14-3Q137.74-3 140.24-5.35L140.24-5.35Q141.84-6.8 141.84-8.65L141.84-8.65ZM153.39-35.8L157.49-35.8 157.49 0 153.39 0 153.39-35.8ZM202.63-24.85L202.63-24.85 197.93-24.85Q197.18-28.45 195.33-30.1L195.33-30.1Q192.93-32.3 188.33-32.3L188.33-32.3Q182.73-32.3 179.68-27.9L179.68-27.9Q177.03-24.05 177.03-17.8L177.03-17.8Q177.03-10.75 180.58-6.85L180.58-6.85Q183.73-3.5 188.68-3.5L188.68-3.5Q194.73-3.5 197.03-7.95L197.03-7.95Q198.08-10 198.68-13.4L198.68-13.4 203.38-13.4Q201.73 0.55 188.73 0.55L188.73 0.55Q181.73 0.55 177.68-3.55L177.68-3.55Q172.48-8.8 172.48-17.65L172.48-17.65Q172.48-26.25 177.48-31.8L177.48-31.8Q181.58-36.35 188.78-36.35L188.78-36.35Q200.48-36.35 202.63-24.85ZM230.73-11.8L230.73-11.65 211.78-11.65Q211.83-8.35 213.18-6.4L213.18-6.4Q215.33-3.25 219.38-3.25L219.38-3.25Q224.38-3.25 226.13-8L226.13-8 230.23-8Q229.43-3.95 226.53-1.7 223.63 0.55 219.23 0.55L219.23 0.55Q213.38 0.55 210.28-3.45L210.28-3.45Q207.53-6.95 207.53-12.7L207.53-12.7Q207.53-19.35 211.13-23.05L211.13-23.05Q214.28-26.25 219.28-26.25L219.28-26.25Q222.93-26.25 225.7-24.5 228.48-22.75 229.68-19.7L229.68-19.7Q230.73-17.1 230.73-11.8L230.73-11.8ZM211.93-15L226.33-15Q226.33-18.35 224.35-20.43 222.38-22.5 219.28-22.5L219.28-22.5Q216.13-22.5 214.15-20.48 212.18-18.45 211.93-15L211.93-15ZM236.33 0L236.33-25.7 240.13-25.7 240.13-21.35Q243.23-26.25 248.63-26.25L248.63-26.25Q252.38-26.25 254.58-24.38 256.78-22.5 256.78-19.35L256.78-19.35 256.78 0 252.73 0 252.73-17.7Q252.73-20 251.3-21.35 249.88-22.7 247.43-22.7L247.43-22.7Q244.23-22.7 242.33-20.35 240.43-18 240.43-14.1L240.43-14.1 240.43 0 236.33 0ZM268.42-25.7L273.67-25.7 273.67-22.4 268.42-22.4 268.42-5.3Q268.42-4.4 269.05-3.78 269.67-3.15 270.67-3.15L270.67-3.15Q271.62-3.15 273.57-3.6L273.57-3.6 274.02 0Q270.92 0.55 269.32 0.55L269.32 0.55Q264.37 0.55 264.37-3.5L264.37-3.5 264.37-22.4 260.87-22.4 260.87-25.7 264.37-25.7 264.37-30.95 268.42-32.8 268.42-25.7ZM300.17-11.8L300.17-11.65 281.22-11.65Q281.27-8.35 282.62-6.4L282.62-6.4Q284.77-3.25 288.82-3.25L288.82-3.25Q293.82-3.25 295.57-8L295.57-8 299.67-8Q298.87-3.95 295.97-1.7 293.07 0.55 288.67 0.55L288.67 0.55Q282.82 0.55 279.72-3.45L279.72-3.45Q276.97-6.95 276.97-12.7L276.97-12.7Q276.97-19.35 280.57-23.05L280.57-23.05Q283.72-26.25 288.72-26.25L288.72-26.25Q292.37-26.25 295.15-24.5 297.92-22.75 299.12-19.7L299.12-19.7Q300.17-17.1 300.17-11.8L300.17-11.8ZM281.37-15L295.77-15Q295.77-18.35 293.8-20.43 291.82-22.5 288.72-22.5L288.72-22.5Q285.57-22.5 283.6-20.48 281.62-18.45 281.37-15L281.37-15ZM305.72 0L305.72-25.7 309.52-25.7 309.52-21Q311.77-26.3 316.62-26.3L316.62-26.3Q317.22-26.3 318.07-26.15L318.07-26.15 318.07-21.95Q314.07-21.9 312.57-20.8L312.57-20.8Q309.82-18.8 309.82-13.35L309.82-13.35 309.82 0 305.72 0Z" opacity="1" transform="matrix(1,0,0,1,0,0)" fill="#ffffff" class="wordmark-text-0" data-fill-palette-color="primary" id="text-0"></path></svg></g></svg></g><g transform="matrix(1,0,0,1,75.54432,87.94785327445574)"><svg viewBox="0 0 244.43135999999998 18.365230992160043" height="18.365230992160043" width="244.43135999999998"><g transform="matrix(1,0,0,1,20,3.2)"><svg width="204.43135999999998" viewBox="1.05 -33.3 739.71 43.3" height="11.965230992160043" data-palette-color="#398378"><path d="M10.9-30.8L10.9-30.8Q10.25-26.4 10.25-16.82 10.25-7.25 10.65-2.75L10.65-2.75Q12.35-2.65 13.85-2.65L13.85-2.65Q19.75-2.65 21.4-4.25L21.4-4.25Q21.75-4.95 21.75-6.45 21.75-7.95 21.25-8.5L21.25-8.5 21.3-8.85Q22.55-9.6 23.8-10.95L23.8-10.95Q24.4-10.9 24.78-10.45 25.15-10 25.15-9.4L25.15-9.4Q25.15-6.95 22.2-3.55 19.25-0.15 16.7 0.75L16.7 0.75Q12.4 0.6 7.4-0.7L7.4-0.7Q6.7 0.2 6.25 1.6L6.25 1.6 5.2 1.3Q6.25-3.75 6.4-15.25L6.4-15.25 6.4-17.75Q6.4-26.5 5.85-30.65L5.85-30.65Q3.3-31 1.05-31.7L1.05-31.7 1.25-32.95Q3.9-32.55 8.22-32.55 12.55-32.55 16.25-32.95L16.25-32.95 16.4-31.75Q13.4-31.05 10.9-30.8ZM35.95 0.6Q31 0.6 27.95-2.53 24.9-5.65 24.9-10.9 24.9-16.15 28.1-20.75 31.3-25.35 36.45-26.65L36.45-26.65Q41.6-26.65 44.3-23.73 47-20.8 47-15.4 47-10 44.07-5.65 41.15-1.3 35.95 0.6L35.95 0.6ZM35.1-23.6L35.1-23.6Q32.85-23.6 31.2-22.35L31.2-22.35Q29.15-18.85 29.15-13.55L29.15-13.55Q29.15-7.45 32.55-4.2L32.55-4.2Q34.35-2.45 36.8-2.45 39.25-2.45 40.75-3.75L40.75-3.75Q42.75-7.25 42.75-12.3 42.75-17.35 40.95-20.48 39.15-23.6 35.1-23.6ZM67-0.8L66.75 0.3Q64.59 0 61.37 0 58.14 0 56.7 0.2L56.7 0.2 56.55-0.6Q56.99-0.7 57.42-1.13 57.84-1.55 57.84-1.9L57.84-1.9Q57.84-4.75 52.59-21.15L52.59-21.15Q51.89-23.35 51.39-24.35L51.39-24.35Q49.74-24.55 47.8-25.15L47.8-25.15 47.99-26.45Q49.99-26.05 53.74-26.05 57.49-26.05 59.89-26.45L59.89-26.45 60.09-25.2Q57.39-24.6 56.39-24.45L56.39-24.45Q56.74-21.15 58.47-14.7 60.2-8.25 62.2-2.75L62.2-2.75Q65.55-10.2 66.67-14.05 67.8-17.9 67.8-21.1 67.8-24.3 65.75-25.4L65.75-25.4 65.94-26.25Q67.44-26 69.77-26 72.09-26 75-26.4L75-26.4 75.19-25.1Q73.5-24.55 72-24.3L72-24.3Q72.19-22.8 72.19-21.58 72.19-20.35 71.82-18.63 71.44-16.9 70.09-13.9L70.09-13.9Q68.34-10.2 63.8-1.65L63.8-1.65Q64.8-1.55 67-0.8L67-0.8ZM81.09-12.35Q81.24-7.9 82.74-5.4 84.24-2.9 87.84-2.9 91.44-2.9 94.49-5.95L94.49-5.95 95.19-5.25Q91.84-1 87.14 0.6L87.14 0.6Q82.29 0.6 79.54-2.48 76.79-5.55 76.79-10.78 76.79-16 80.04-20.6 83.29-25.2 88.34-26.65L88.34-26.65Q91.99-26.65 96.59-25.9L96.59-25.9 96.54-24.8Q95.59-24.8 94.74-24.45L94.74-24.45Q93.79-22.2 93.49-19.1L93.49-19.1 92.24-19.1Q91.84-20.8 91.84-22.6L91.84-22.6Q89.94-23.55 87.34-23.55 84.74-23.55 83.04-22.15L83.04-22.15Q81.34-19.05 81.09-14.75L81.09-14.75Q83.19-14.4 85.59-14.4L85.59-14.4Q89.74-14.4 90.59-16.15L90.59-16.15 91.64-16Q91.19-14.5 91.19-13.05 91.19-11.6 91.54-9.5L91.54-9.5 90.34-9.3Q89.79-10.8 89.54-12.4L89.54-12.4Q87.54-12.6 85.57-12.6 83.59-12.6 81.09-12.35L81.09-12.35ZM121.19-3.3L121.19-3.3Q123.54-3.3 126.09-4.7L126.09-4.7 126.09-8.8Q126.09-9.95 125.89-12.15L125.89-12.15Q124.14-12.65 121.34-13.15L121.34-13.15 121.49-14.2Q122.64-14.05 123.69-14.05L123.69-14.05Q128.09-14.05 131.74-16.5L131.74-16.5 132.19-15.6Q131.04-14.7 130.39-13.8L130.39-13.8Q129.44-5.1 129.39 2.45L129.39 2.45Q127.94 5.1 124.61 7.55 121.29 10 118.54 10L118.54 10Q117.79 10 117.29 9.6 116.79 9.2 116.79 8.5L116.79 8.5Q118.24 7.4 119.24 5.95L119.24 5.95 119.59 5.9Q120.69 6.75 122.14 6.75 123.59 6.75 124.14 6.45L124.14 6.45Q126.19 3.7 126.19-2.55L126.19-2.55Q123.44-0.4 120.09 0.75L120.09 0.75Q114.09 0.75 111.06-3.03 108.04-6.8 108.04-13.48 108.04-20.15 111.71-25.88 115.39-31.6 121.59-33.3L121.59-33.3Q126.79-33.3 132.04-32.35L132.04-32.35 131.99-31.25Q130.74-31.25 129.59-30.8L129.59-30.8Q128.24-27.65 127.94-23.75L127.94-23.75 126.69-23.75Q126.24-25.8 126.24-28.4L126.24-28.4Q123.89-29.7 120.49-29.7 117.09-29.7 115.04-28L115.04-28Q112.49-23.65 112.49-16.95L112.49-16.95Q112.49-3.3 121.19-3.3ZM146.94 0.6Q141.99 0.6 138.94-2.53 135.89-5.65 135.89-10.9 135.89-16.15 139.09-20.75 142.29-25.35 147.44-26.65L147.44-26.65Q152.59-26.65 155.29-23.73 157.99-20.8 157.99-15.4 157.99-10 155.06-5.65 152.14-1.3 146.94 0.6L146.94 0.6ZM146.09-23.6L146.09-23.6Q143.84-23.6 142.19-22.35L142.19-22.35Q140.14-18.85 140.14-13.55L140.14-13.55Q140.14-7.45 143.54-4.2L143.54-4.2Q145.34-2.45 147.79-2.45 150.24-2.45 151.74-3.75L151.74-3.75Q153.74-7.25 153.74-12.3 153.74-17.35 151.94-20.48 150.14-23.6 146.09-23.6ZM161.88-24.7L161.88-25.95 173.38-26.3Q179.08-26.3 182.16-23.6 185.23-20.9 185.23-15.53 185.23-10.15 181.86-5.5 178.48-0.85 173.48 0.6L173.48 0.6Q172.18 0.6 170.11 0.13 168.03-0.35 166.68-0.9L166.68-0.9Q166.13-0.25 165.68 0.95L165.68 0.95 164.63 0.7Q165.58-3.75 165.58-11.88 165.58-20 165.13-24.05L165.13-24.05Q163.43-24.7 161.88-24.7L161.88-24.7ZM179.08-20.95Q178.18-22.65 176.56-23.6 174.93-24.55 173.01-24.55 171.08-24.55 169.68-24L169.68-24Q169.33-20.75 169.33-13.63 169.33-6.5 169.53-3.75L169.53-3.75Q172.03-2.6 174.66-2.6 177.28-2.6 178.83-3.95L178.83-3.95Q180.73-7.55 180.73-12.8L180.73-12.8Q180.73-17.7 179.08-20.95L179.08-20.95ZM195.03-2.3L195.03-2.3Q195.03 0.2 193.33 2.8 191.63 5.4 189.33 6.95L189.33 6.95 188.83 6.45Q189.88 5.2 190.73 3.38 191.58 1.55 191.63 0.2L191.63 0.2Q190.33-1 189.63-2.3L189.63-2.3Q189.93-2.9 190.78-3.68 191.63-4.45 192.33-4.8L192.33-4.8Q192.98-4.4 193.83-3.63 194.68-2.85 195.03-2.3ZM217.58-30.8L217.58-30.8Q216.93-26.4 216.93-16.82 216.93-7.25 217.33-2.75L217.33-2.75Q219.03-2.65 220.53-2.65L220.53-2.65Q226.43-2.65 228.08-4.25L228.08-4.25Q228.43-4.95 228.43-6.45 228.43-7.95 227.93-8.5L227.93-8.5 227.98-8.85Q229.23-9.6 230.48-10.95L230.48-10.95Q231.08-10.9 231.45-10.45 231.83-10 231.83-9.4L231.83-9.4Q231.83-6.95 228.88-3.55 225.93-0.15 223.38 0.75L223.38 0.75Q219.08 0.6 214.08-0.7L214.08-0.7Q213.38 0.2 212.93 1.6L212.93 1.6 211.88 1.3Q212.93-3.75 213.08-15.25L213.08-15.25 213.08-17.75Q213.08-26.5 212.53-30.65L212.53-30.65Q209.98-31 207.73-31.7L207.73-31.7 207.93-32.95Q210.58-32.55 214.9-32.55 219.23-32.55 222.93-32.95L222.93-32.95 223.08-31.75Q220.08-31.05 217.58-30.8ZM242.62 0.6Q237.67 0.6 234.62-2.53 231.57-5.65 231.57-10.9 231.57-16.15 234.77-20.75 237.97-25.35 243.12-26.65L243.12-26.65Q248.27-26.65 250.97-23.73 253.67-20.8 253.67-15.4 253.67-10 250.75-5.65 247.82-1.3 242.62 0.6L242.62 0.6ZM241.77-23.6L241.77-23.6Q239.52-23.6 237.87-22.35L237.87-22.35Q235.82-18.85 235.82-13.55L235.82-13.55Q235.82-7.45 239.22-4.2L239.22-4.2Q241.02-2.45 243.47-2.45 245.92-2.45 247.42-3.75L247.42-3.75Q249.42-7.25 249.42-12.3 249.42-17.35 247.62-20.48 245.82-23.6 241.77-23.6ZM273.67-0.8L273.42 0.3Q271.27 0 268.05 0 264.82 0 263.37 0.2L263.37 0.2 263.22-0.6Q263.67-0.7 264.1-1.13 264.52-1.55 264.52-1.9L264.52-1.9Q264.52-4.75 259.27-21.15L259.27-21.15Q258.57-23.35 258.07-24.35L258.07-24.35Q256.42-24.55 254.47-25.15L254.47-25.15 254.67-26.45Q256.67-26.05 260.42-26.05 264.17-26.05 266.57-26.45L266.57-26.45 266.77-25.2Q264.07-24.6 263.07-24.45L263.07-24.45Q263.42-21.15 265.15-14.7 266.87-8.25 268.87-2.75L268.87-2.75Q272.22-10.2 273.35-14.05 274.47-17.9 274.47-21.1 274.47-24.3 272.42-25.4L272.42-25.4 272.62-26.25Q274.12-26 276.45-26 278.77-26 281.67-26.4L281.67-26.4 281.87-25.1Q280.17-24.55 278.67-24.3L278.67-24.3Q278.87-22.8 278.87-21.58 278.87-20.35 278.5-18.63 278.12-16.9 276.77-13.9L276.77-13.9Q275.02-10.2 270.47-1.65L270.47-1.65Q271.47-1.55 273.67-0.8L273.67-0.8ZM287.77-12.35Q287.92-7.9 289.42-5.4 290.92-2.9 294.52-2.9 298.12-2.9 301.17-5.95L301.17-5.95 301.87-5.25Q298.52-1 293.82 0.6L293.82 0.6Q288.97 0.6 286.22-2.48 283.47-5.55 283.47-10.78 283.47-16 286.72-20.6 289.97-25.2 295.02-26.65L295.02-26.65Q298.67-26.65 303.27-25.9L303.27-25.9 303.22-24.8Q302.27-24.8 301.42-24.45L301.42-24.45Q300.47-22.2 300.17-19.1L300.17-19.1 298.92-19.1Q298.52-20.8 298.52-22.6L298.52-22.6Q296.62-23.55 294.02-23.55 291.42-23.55 289.72-22.15L289.72-22.15Q288.02-19.05 287.77-14.75L287.77-14.75Q289.87-14.4 292.27-14.4L292.27-14.4Q296.42-14.4 297.27-16.15L297.27-16.15 298.32-16Q297.87-14.5 297.87-13.05 297.87-11.6 298.22-9.5L298.22-9.5 297.02-9.3Q296.47-10.8 296.22-12.4L296.22-12.4Q294.22-12.6 292.24-12.6 290.27-12.6 287.77-12.35L287.77-12.35ZM318.51-1.9L318.51-1.9Q319.11-6 319.11-15.25 319.11-24.5 318.61-29.9L318.61-29.9Q313.16-29.8 311.61-28.3L311.61-28.3Q311.26-27.6 311.26-26.1 311.26-24.6 311.76-24.05L311.76-24.05 311.71-23.7Q310.46-22.95 309.21-21.6L309.21-21.6Q308.61-21.65 308.24-22.1 307.86-22.55 307.86-23.15L307.86-23.15Q307.86-25.45 310.49-28.6 313.11-31.75 315.51-32.95L315.51-32.95Q319.76-32.55 328.81-32.55L328.81-32.55Q333.61-32.55 336.04-30.8 338.46-29.05 338.46-24.65 338.46-20.25 334.81-17.5 331.16-14.75 326.31-14.75L326.31-14.75Q325.56-14.75 325.21-14.8L325.21-14.8 325.41-16.4 326.01-16.4Q329.76-16.4 331.76-18.3 333.76-20.2 333.76-23.78 333.76-27.35 332.09-28.7 330.41-30.05 326.76-30.05L326.76-30.05Q324.86-30.05 323.36-29.9L323.36-29.9Q322.96-25.45 322.96-15.83 322.96-6.2 323.56-1.75L323.56-1.75Q326.21-1.5 329.06-0.8L329.06-0.8 328.91 0.4Q325.21 0 320.89 0 316.56 0 313.91 0.4L313.91 0.4 313.71-0.85Q315.96-1.55 318.51-1.9ZM344.76-12.35Q344.91-7.9 346.41-5.4 347.91-2.9 351.51-2.9 355.11-2.9 358.16-5.95L358.16-5.95 358.86-5.25Q355.51-1 350.81 0.6L350.81 0.6Q345.96 0.6 343.21-2.48 340.46-5.55 340.46-10.78 340.46-16 343.71-20.6 346.96-25.2 352.01-26.65L352.01-26.65Q355.66-26.65 360.26-25.9L360.26-25.9 360.21-24.8Q359.26-24.8 358.41-24.45L358.41-24.45Q357.46-22.2 357.16-19.1L357.16-19.1 355.91-19.1Q355.51-20.8 355.51-22.6L355.51-22.6Q353.61-23.55 351.01-23.55 348.41-23.55 346.71-22.15L346.71-22.15Q345.01-19.05 344.76-14.75L344.76-14.75Q346.86-14.4 349.26-14.4L349.26-14.4Q353.41-14.4 354.26-16.15L354.26-16.15 355.31-16Q354.86-14.5 354.86-13.05 354.86-11.6 355.21-9.5L355.21-9.5 354.01-9.3Q353.46-10.8 353.21-12.4L353.21-12.4Q351.21-12.6 349.24-12.6 347.26-12.6 344.76-12.35L344.76-12.35ZM373.76 0.6Q368.81 0.6 365.76-2.53 362.71-5.65 362.71-10.9 362.71-16.15 365.91-20.75 369.11-25.35 374.26-26.65L374.26-26.65Q379.41-26.65 382.11-23.73 384.81-20.8 384.81-15.4 384.81-10 381.88-5.65 378.96-1.3 373.76 0.6L373.76 0.6ZM372.91-23.6L372.91-23.6Q370.66-23.6 369.01-22.35L369.01-22.35Q366.96-18.85 366.96-13.55L366.96-13.55Q366.96-7.45 370.36-4.2L370.36-4.2Q372.16-2.45 374.61-2.45 377.06-2.45 378.56-3.75L378.56-3.75Q380.56-7.25 380.56-12.3 380.56-17.35 378.76-20.48 376.96-23.6 372.91-23.6ZM389.06-24.7L389.06-25.95 400.66-26.3Q409.71-26.3 409.71-19.75L409.71-19.75Q409.71-16.1 406.48-13.85 403.26-11.6 399.16-11.6L399.16-11.6Q398.56-11.6 398.31-11.65L398.31-11.65 398.51-13.3 398.96-13.3Q402.06-13.3 403.58-14.65 405.11-16 405.11-18.9 405.11-21.8 403.88-23.18 402.66-24.55 399.96-24.55L399.96-24.55Q398.31-24.55 396.86-24L396.86-24Q396.51-20.7 396.51-12.8 396.51-4.9 396.96-1.65L396.96-1.65Q399.06-1.4 401.36-0.85L401.36-0.85 401.21 0.4Q398.76 0 395.31 0 391.86 0 389.31 0.4L389.31 0.4 389.11-0.9Q390.61-1.4 392.26-1.65L392.26-1.65Q392.76-5.15 392.76-12.58 392.76-20 392.31-24.05L392.31-24.05Q390.56-24.7 389.06-24.7L389.06-24.7ZM430.6-0.45L430.35 0.55Q427.1 0 421.53 0 415.95 0 412.2 0.5L412.2 0.5 412.05-0.75Q413.45-1.3 415.25-1.65L415.25-1.65Q415.75-4.65 415.75-11.85L415.75-11.85 415.75-14.2Q415.75-20.4 415.25-24.4L415.25-24.4Q413.6-24.65 412.1-25.15L412.1-25.15 412.3-26.45Q414.85-26.05 418.3-26.05 421.75-26.05 424.2-26.45L424.2-26.45 424.35-25.2Q422.1-24.65 419.9-24.4L419.9-24.4Q419.5-21.7 419.5-13.28 419.5-4.85 419.9-2.05L419.9-2.05Q421.1-1.85 423.3-1.85 425.5-1.85 427.25-2.7L427.25-2.7Q427.95-4.4 427.95-6.7L427.95-6.7 429.2-6.7Q429.4-2.85 430.6-0.45L430.6-0.45ZM436.8-12.35Q436.95-7.9 438.45-5.4 439.95-2.9 443.55-2.9 447.15-2.9 450.2-5.95L450.2-5.95 450.9-5.25Q447.55-1 442.85 0.6L442.85 0.6Q438 0.6 435.25-2.48 432.5-5.55 432.5-10.78 432.5-16 435.75-20.6 439-25.2 444.05-26.65L444.05-26.65Q447.7-26.65 452.3-25.9L452.3-25.9 452.25-24.8Q451.3-24.8 450.45-24.45L450.45-24.45Q449.5-22.2 449.2-19.1L449.2-19.1 447.95-19.1Q447.55-20.8 447.55-22.6L447.55-22.6Q445.65-23.55 443.05-23.55 440.45-23.55 438.75-22.15L438.75-22.15Q437.05-19.05 436.8-14.75L436.8-14.75Q438.9-14.4 441.3-14.4L441.3-14.4Q445.45-14.4 446.3-16.15L446.3-16.15 447.35-16Q446.9-14.5 446.9-13.05 446.9-11.6 447.25-9.5L447.25-9.5 446.05-9.3Q445.5-10.8 445.25-12.4L445.25-12.4Q443.25-12.6 441.28-12.6 439.3-12.6 436.8-12.35L436.8-12.35ZM460.65-2.3L460.65-2.3Q460.65 0.2 458.95 2.8 457.25 5.4 454.95 6.95L454.95 6.95 454.45 6.45Q455.5 5.2 456.35 3.38 457.2 1.55 457.25 0.2L457.25 0.2Q455.95-1 455.25-2.3L455.25-2.3Q455.55-2.9 456.4-3.68 457.25-4.45 457.95-4.8L457.95-4.8Q458.6-4.4 459.45-3.63 460.3-2.85 460.65-2.3ZM472.84-0.6L472.84-0.6Q472.84-5 474.77-8.2 476.69-11.4 478.79-11.4L478.79-11.4Q479.34-11.4 479.89-11.05L479.89-11.05 480.04-10.7Q479.39-9.45 479.24-7.55L479.24-7.55 478.94-7.35Q478.74-7.45 478.19-7.45 477.64-7.45 476.57-6.85 475.49-6.25 474.89-5.65L474.89-5.65Q474.54-4.95 474.54-4.05L474.54-4.05Q474.54-1.7 477.72-0.03 480.89 1.65 483.84 1.65L483.84 1.65Q489.99 1.65 489.99-5.35L489.99-5.35Q489.99-8 484.94-12L484.94-12Q482.84-13.7 480.74-15.4L480.74-15.4Q475.69-19.4 475.69-22.35L475.69-22.35Q475.69-25.85 478.84-28.88 481.99-31.9 485.99-33.3L485.99-33.3Q490.29-33.3 494.14-32.45L494.14-32.45 494.14-31.45Q491.54-29.05 491.24-24.05L491.24-24.05 489.99-24.05Q489.99-26.7 489.74-28.7L489.74-28.7Q487.59-29.7 485.07-29.7 482.54-29.7 480.79-28.63 479.04-27.55 479.04-25.9 479.04-24.25 480.52-22.58 481.99-20.9 484.09-19.33 486.19-17.75 488.27-16.13 490.34-14.5 491.82-12.63 493.29-10.75 493.29-9L493.29-9Q493.29-4 490.54-0.1 487.79 3.8 483.04 5.75L483.04 5.75Q476.79 5.1 473.04 2.25L473.04 2.25Q472.84 0.85 472.84-0.6ZM502.09-12.35Q502.24-7.9 503.74-5.4 505.24-2.9 508.84-2.9 512.44-2.9 515.49-5.95L515.49-5.95 516.19-5.25Q512.84-1 508.14 0.6L508.14 0.6Q503.29 0.6 500.54-2.48 497.79-5.55 497.79-10.78 497.79-16 501.04-20.6 504.29-25.2 509.34-26.65L509.34-26.65Q512.99-26.65 517.59-25.9L517.59-25.9 517.54-24.8Q516.59-24.8 515.74-24.45L515.74-24.45Q514.79-22.2 514.49-19.1L514.49-19.1 513.24-19.1Q512.84-20.8 512.84-22.6L512.84-22.6Q510.94-23.55 508.34-23.55 505.74-23.55 504.04-22.15L504.04-22.15Q502.34-19.05 502.09-14.75L502.09-14.75Q504.19-14.4 506.59-14.4L506.59-14.4Q510.74-14.4 511.59-16.15L511.59-16.15 512.64-16Q512.19-14.5 512.19-13.05 512.19-11.6 512.54-9.5L512.54-9.5 511.34-9.3Q510.79-10.8 510.54-12.4L510.54-12.4Q508.54-12.6 506.57-12.6 504.59-12.6 502.09-12.35L502.09-12.35ZM520.09-24.95L520.09-25.95 531.59-26.3Q536.09-26.3 538.34-24.98 540.59-23.65 540.59-20.15L540.59-20.15Q540.59-17.75 539.11-15.9 537.64-14.05 535.24-13.15L535.24-13.15 540.84-1.7Q542.54-1.4 544.04-1L544.04-1 543.84 0.35Q541.74 0 539.11 0 536.49 0 534.99 0.25L534.99 0.25 534.79-0.55Q535.44-1.2 535.44-2.7L535.44-2.7Q535.44-5.75 531.94-12.5L531.94-12.5Q530.89-12.7 529.49-12.7L529.49-12.7 529.59-14.15 530.09-14.15Q535.99-14.15 535.99-19.55L535.99-19.55Q535.99-24.55 530.94-24.55L530.94-24.55Q529.24-24.55 527.89-24L527.89-24Q527.54-20.7 527.54-12.7 527.54-4.7 527.99-1.65L527.99-1.65Q530.19-1.4 532.09-0.9L532.09-0.9 531.94 0.35Q529.34 0 526.11 0 522.89 0 520.34 0.4L520.34 0.4 520.14-0.9Q521.54-1.35 523.29-1.65L523.29-1.65Q523.79-5.4 523.79-13.33 523.79-21.25 523.34-24.3L523.34-24.3Q521.39-24.95 520.09-24.95L520.09-24.95ZM562.13-0.8L561.88 0.3Q559.73 0 556.51 0 553.28 0 551.83 0.2L551.83 0.2 551.68-0.6Q552.13-0.7 552.56-1.13 552.98-1.55 552.98-1.9L552.98-1.9Q552.98-4.75 547.73-21.15L547.73-21.15Q547.03-23.35 546.53-24.35L546.53-24.35Q544.88-24.55 542.93-25.15L542.93-25.15 543.13-26.45Q545.13-26.05 548.88-26.05 552.63-26.05 555.03-26.45L555.03-26.45 555.23-25.2Q552.53-24.6 551.53-24.45L551.53-24.45Q551.88-21.15 553.61-14.7 555.33-8.25 557.33-2.75L557.33-2.75Q560.68-10.2 561.81-14.05 562.93-17.9 562.93-21.1 562.93-24.3 560.88-25.4L560.88-25.4 561.08-26.25Q562.58-26 564.91-26 567.23-26 570.13-26.4L570.13-26.4 570.33-25.1Q568.63-24.55 567.13-24.3L567.13-24.3Q567.33-22.8 567.33-21.58 567.33-20.35 566.96-18.63 566.58-16.9 565.23-13.9L565.23-13.9Q563.48-10.2 558.93-1.65L558.93-1.65Q559.93-1.55 562.13-0.8L562.13-0.8ZM576.23-12.35Q576.38-7.9 577.88-5.4 579.38-2.9 582.98-2.9 586.58-2.9 589.63-5.95L589.63-5.95 590.33-5.25Q586.98-1 582.28 0.6L582.28 0.6Q577.43 0.6 574.68-2.48 571.93-5.55 571.93-10.78 571.93-16 575.18-20.6 578.43-25.2 583.48-26.65L583.48-26.65Q587.13-26.65 591.73-25.9L591.73-25.9 591.68-24.8Q590.73-24.8 589.88-24.45L589.88-24.45Q588.93-22.2 588.63-19.1L588.63-19.1 587.38-19.1Q586.98-20.8 586.98-22.6L586.98-22.6Q585.08-23.55 582.48-23.55 579.88-23.55 578.18-22.15L578.18-22.15Q576.48-19.05 576.23-14.75L576.23-14.75Q578.33-14.4 580.73-14.4L580.73-14.4Q584.88-14.4 585.73-16.15L585.73-16.15 586.78-16Q586.33-14.5 586.33-13.05 586.33-11.6 586.68-9.5L586.68-9.5 585.48-9.3Q584.93-10.8 584.68-12.4L584.68-12.4Q582.68-12.6 580.71-12.6 578.73-12.6 576.23-12.35L576.23-12.35ZM606.98-1.9L606.98-1.9Q607.58-6 607.58-15.25 607.58-24.5 607.08-29.9L607.08-29.9Q601.63-29.8 600.08-28.3L600.08-28.3Q599.73-27.6 599.73-26.1 599.73-24.6 600.23-24.05L600.23-24.05 600.18-23.7Q598.93-22.95 597.68-21.6L597.68-21.6Q597.08-21.65 596.7-22.1 596.33-22.55 596.33-23.15L596.33-23.15Q596.33-25.45 598.95-28.6 601.58-31.75 603.98-32.95L603.98-32.95Q608.23-32.55 617.28-32.55L617.28-32.55Q622.08-32.55 624.5-30.8 626.93-29.05 626.93-24.65 626.93-20.25 623.28-17.5 619.63-14.75 614.78-14.75L614.78-14.75Q614.03-14.75 613.68-14.8L613.68-14.8 613.88-16.4 614.48-16.4Q618.23-16.4 620.23-18.3 622.23-20.2 622.23-23.78 622.23-27.35 620.55-28.7 618.88-30.05 615.23-30.05L615.23-30.05Q613.33-30.05 611.83-29.9L611.83-29.9Q611.43-25.45 611.43-15.83 611.43-6.2 612.03-1.75L612.03-1.75Q614.68-1.5 617.53-0.8L617.53-0.8 617.38 0.4Q613.68 0 609.35 0 605.03 0 602.38 0.4L602.38 0.4 602.18-0.85Q604.43-1.55 606.98-1.9ZM633.22-12.35Q633.37-7.9 634.87-5.4 636.37-2.9 639.97-2.9 643.57-2.9 646.62-5.95L646.62-5.95 647.32-5.25Q643.97-1 639.27 0.6L639.27 0.6Q634.42 0.6 631.67-2.48 628.92-5.55 628.92-10.78 628.92-16 632.17-20.6 635.42-25.2 640.47-26.65L640.47-26.65Q644.12-26.65 648.72-25.9L648.72-25.9 648.67-24.8Q647.72-24.8 646.87-24.45L646.87-24.45Q645.92-22.2 645.62-19.1L645.62-19.1 644.37-19.1Q643.97-20.8 643.97-22.6L643.97-22.6Q642.07-23.55 639.47-23.55 636.87-23.55 635.17-22.15L635.17-22.15Q633.47-19.05 633.22-14.75L633.22-14.75Q635.32-14.4 637.72-14.4L637.72-14.4Q641.87-14.4 642.72-16.15L642.72-16.15 643.77-16Q643.32-14.5 643.32-13.05 643.32-11.6 643.67-9.5L643.67-9.5 642.47-9.3Q641.92-10.8 641.67-12.4L641.67-12.4Q639.67-12.6 637.7-12.6 635.72-12.6 633.22-12.35L633.22-12.35ZM662.22 0.6Q657.27 0.6 654.22-2.53 651.17-5.65 651.17-10.9 651.17-16.15 654.37-20.75 657.57-25.35 662.72-26.65L662.72-26.65Q667.87-26.65 670.57-23.73 673.27-20.8 673.27-15.4 673.27-10 670.35-5.65 667.42-1.3 662.22 0.6L662.22 0.6ZM661.37-23.6L661.37-23.6Q659.12-23.6 657.47-22.35L657.47-22.35Q655.42-18.85 655.42-13.55L655.42-13.55Q655.42-7.45 658.82-4.2L658.82-4.2Q660.62-2.45 663.07-2.45 665.52-2.45 667.02-3.75L667.02-3.75Q669.02-7.25 669.02-12.3 669.02-17.35 667.22-20.48 665.42-23.6 661.37-23.6ZM677.52-24.7L677.52-25.95 689.12-26.3Q698.17-26.3 698.17-19.75L698.17-19.75Q698.17-16.1 694.94-13.85 691.72-11.6 687.62-11.6L687.62-11.6Q687.02-11.6 686.77-11.65L686.77-11.65 686.97-13.3 687.42-13.3Q690.52-13.3 692.04-14.65 693.57-16 693.57-18.9 693.57-21.8 692.34-23.18 691.12-24.55 688.42-24.55L688.42-24.55Q686.77-24.55 685.32-24L685.32-24Q684.97-20.7 684.97-12.8 684.97-4.9 685.42-1.65L685.42-1.65Q687.52-1.4 689.82-0.85L689.82-0.85 689.67 0.4Q687.22 0 683.77 0 680.32 0 677.77 0.4L677.77 0.4 677.57-0.9Q679.07-1.4 680.72-1.65L680.72-1.65Q681.22-5.15 681.22-12.58 681.22-20 680.77-24.05L680.77-24.05Q679.02-24.7 677.52-24.7L677.52-24.7ZM719.07-0.45L718.82 0.55Q715.57 0 709.99 0 704.42 0 700.67 0.5L700.67 0.5 700.52-0.75Q701.92-1.3 703.72-1.65L703.72-1.65Q704.22-4.65 704.22-11.85L704.22-11.85 704.22-14.2Q704.22-20.4 703.72-24.4L703.72-24.4Q702.07-24.65 700.57-25.15L700.57-25.15 700.77-26.45Q703.32-26.05 706.77-26.05 710.22-26.05 712.67-26.45L712.67-26.45 712.82-25.2Q710.57-24.65 708.37-24.4L708.37-24.4Q707.97-21.7 707.97-13.28 707.97-4.85 708.37-2.05L708.37-2.05Q709.57-1.85 711.77-1.85 713.97-1.85 715.72-2.7L715.72-2.7Q716.42-4.4 716.42-6.7L716.42-6.7 717.67-6.7Q717.87-2.85 719.07-0.45L719.07-0.45ZM725.26-12.35Q725.41-7.9 726.91-5.4 728.41-2.9 732.01-2.9 735.61-2.9 738.66-5.95L738.66-5.95 739.36-5.25Q736.01-1 731.31 0.6L731.31 0.6Q726.46 0.6 723.71-2.48 720.96-5.55 720.96-10.78 720.96-16 724.21-20.6 727.46-25.2 732.51-26.65L732.51-26.65Q736.16-26.65 740.76-25.9L740.76-25.9 740.71-24.8Q739.76-24.8 738.91-24.45L738.91-24.45Q737.96-22.2 737.66-19.1L737.66-19.1 736.41-19.1Q736.01-20.8 736.01-22.6L736.01-22.6Q734.11-23.55 731.51-23.55 728.91-23.55 727.21-22.15L727.21-22.15Q725.51-19.05 725.26-14.75L725.26-14.75Q727.36-14.4 729.76-14.4L729.76-14.4Q733.91-14.4 734.76-16.15L734.76-16.15 735.81-16Q735.36-14.5 735.36-13.05 735.36-11.6 735.71-9.5L735.71-9.5 734.51-9.3Q733.96-10.8 733.71-12.4L733.71-12.4Q731.71-12.6 729.74-12.6 727.76-12.6 725.26-12.35L725.26-12.35Z" opacity="1" transform="matrix(1,0,0,1,0,0)" fill="#000000" class="slogan-text-1" data-fill-palette-color="quaternary" id="text-1"></path></svg></g></svg></g></svg></g></svg></g></svg></g><defs></defs></svg><rect width="395.52" height="106.31308426661579" fill="none" stroke="none" visibility="hidden"></rect></g></svg></g></svg>