<svg width="29" height="29" viewBox="0 0 29 29" fill="none" xmlns="http://www.w3.org/2000/svg">
<path d="M28.5103 14.1274C28.5103 21.1983 23.2705 27.044 16.4635 27.9926C15.8271 28.0808 15.1759 28.127 14.5149 28.127C13.7519 28.127 13.0027 28.0661 12.2731 27.9484C5.6093 26.8752 0.519531 21.0953 0.519531 14.1274C0.519531 6.39539 6.78612 0.126953 14.5159 0.126953C22.2457 0.126953 28.5123 6.39539 28.5123 14.1274H28.5103Z" fill="#757575"/>
<path d="M16.4637 11.3686V14.4185H20.2354L19.6381 18.5268H16.4637V27.9922C15.8272 28.0805 15.176 28.1266 14.515 28.1266C13.7521 28.1266 13.0028 28.0658 12.2732 27.9481V18.5268H8.79468V14.4185H12.2732V10.6868C12.2732 8.37173 14.1492 6.49414 16.4646 6.49414V6.4961C16.4715 6.4961 16.4774 6.49414 16.4842 6.49414H20.2364V10.0472H17.7846C17.056 10.0472 16.4646 10.6388 16.4646 11.3676L16.4637 11.3686Z" fill="#F9F9F9"/>
</svg>
