<svg width="29" height="29" viewBox="0 0 29 29" fill="none" xmlns="http://www.w3.org/2000/svg">
<path d="M14.5163 0.126953H14.4525C6.74044 0.126953 0.488525 6.38069 0.488525 14.0951V14.1588C0.488525 21.8732 6.74044 28.127 14.4525 28.127H14.5163C22.2284 28.127 28.4803 21.8732 28.4803 14.1588V14.0951C28.4803 6.38069 22.2284 0.126953 14.5163 0.126953Z" fill="#757575"/>
<path d="M7.16418 9.43375C6.79544 9.09139 6.61206 8.66761 6.61206 8.16339C6.61206 7.65917 6.79642 7.21675 7.16418 6.87341C7.53291 6.53104 8.00757 6.35938 8.58912 6.35938C9.17066 6.35938 9.62669 6.53104 9.99445 6.87341C10.3632 7.21577 10.5466 7.64642 10.5466 8.16339C10.5466 8.68037 10.3622 9.09139 9.99445 9.43375C9.62571 9.77611 9.15792 9.94778 8.58912 9.94778C8.02032 9.94778 7.53291 9.77611 7.16418 9.43375ZM10.2367 11.3977V21.8941H6.92097V11.3977H10.2367Z" fill="#F9F9F9"/>
<path d="M21.2743 12.435C21.997 13.2198 22.3579 14.2969 22.3579 15.6683V21.7091H19.2089V16.094C19.2089 15.4024 19.0295 14.8649 18.6715 14.4823C18.3136 14.0997 17.8311 13.9074 17.227 13.9074C16.6229 13.9074 16.1404 14.0987 15.7824 14.4823C15.4245 14.8649 15.245 15.4024 15.245 16.094V21.7091H12.0774V11.3687H15.245V12.7401C15.5657 12.2829 15.9982 11.9219 16.5415 11.6561C17.0848 11.3902 17.6957 11.2578 18.3754 11.2578C19.5855 11.2578 20.5525 11.6502 21.2743 12.434V12.435Z" fill="#F9F9F9"/>
</svg>
