<svg width="29" height="29" viewBox="0 0 29 29" fill="none" xmlns="http://www.w3.org/2000/svg">
<path d="M28.4947 14.1274C28.4947 21.1983 23.2549 27.044 16.4479 27.9926C15.8114 28.0808 15.1603 28.127 14.4993 28.127C13.7363 28.127 12.9871 28.0661 12.2574 27.9484C5.59367 26.8752 0.503906 21.0953 0.503906 14.1274C0.503906 6.39539 6.77049 0.126953 14.5003 0.126953C22.23 0.126953 28.4966 6.39539 28.4966 14.1274H28.4947Z" fill="#757575"/>
<path d="M6.1801 6.30176L12.635 14.9343L6.13989 21.9532H7.6021L13.2891 15.8084L17.8836 21.9532H22.8586L16.0409 12.8351L22.0868 6.30176H20.6246L15.3878 11.961L11.1561 6.30176H6.18107H6.1801ZM8.32976 7.37887H10.6148L20.707 20.8761H18.422L8.32976 7.37887Z" fill="#F9F9F9"/>
</svg>
