<svg width="29" height="29" viewBox="0 0 29 29" fill="none" xmlns="http://www.w3.org/2000/svg">
<path d="M28.4886 14.127C28.4886 6.39497 22.2224 0.126953 14.4927 0.126953C6.763 0.126953 0.496826 6.39497 0.496826 14.127C0.496826 21.8589 6.763 28.127 14.4927 28.127C22.2224 28.127 28.4886 21.8589 28.4886 14.127Z" fill="#757575"/>
<path d="M23.3058 11.2258C23.1956 10.1623 22.9586 8.98671 22.0863 8.3689C21.4106 7.88981 20.5225 7.8721 19.6935 7.87308C17.9409 7.87308 16.1874 7.87604 14.4348 7.87702C12.7491 7.87899 11.0634 7.87997 9.37776 7.88194C8.67359 7.88194 7.98909 7.82783 7.33507 8.1328C6.77351 8.39448 6.33389 8.89227 6.06934 9.44613C5.7025 10.2164 5.62579 11.089 5.58154 11.941C5.49991 13.4924 5.50876 15.0477 5.60612 16.5981C5.67792 17.7295 5.85986 18.9798 6.73417 19.7009C7.50915 20.3394 8.60278 20.3709 9.60789 20.3719C12.7983 20.3748 15.9897 20.3778 19.1811 20.3797C19.5902 20.3807 20.017 20.3728 20.434 20.3276C21.2542 20.239 22.0361 20.0039 22.5632 19.396C23.0953 18.7831 23.232 17.9301 23.3127 17.1225C23.5094 15.1628 23.5074 13.1844 23.3058 11.2258ZM12.5898 16.8736V11.3792L17.3459 14.1259L12.5898 16.8736Z" fill="#F9F9F9"/>
</svg>
