<svg xmlns="http://www.w3.org/2000/svg" version="1.1" xmlns:xlink="http://www.w3.org/1999/xlink" xmlns:svgjs="http://svgjs.dev/svgjs" width="1500" height="1500" viewBox="0 0 1500 1500"><rect width="1500" height="1500" fill="#ffffff"></rect><g transform="matrix(0.6666666666666666,0,0,0.6666666666666666,249.39393939393938,435.99032258064517)"><svg viewBox="0 0 396 248" data-background-color="#333366" preserveAspectRatio="xMidYMid meet" height="939" width="1500" xmlns="http://www.w3.org/2000/svg" xmlns:xlink="http://www.w3.org/1999/xlink"><g id="tight-bounds" transform="matrix(1,0,0,1,0.2400000000000091,0.4000000000000057)"><svg viewBox="0 0 395.52 247.2" height="247.2" width="395.52"><g><svg></svg></g><g><svg viewBox="0 0 395.52 247.2" height="247.2" width="395.52"><g transform="matrix(1,0,0,1,75.54432,89.93648403361344)"><svg viewBox="0 0 244.43135999999998 67.32703193277311" height="67.32703193277311" width="244.43135999999998"><g><svg viewBox="0 0 244.43135999999998 67.32703193277311" height="67.32703193277311" width="244.43135999999998"><g><svg viewBox="0 0 244.43135999999998 67.32703193277311" height="67.32703193277311" width="244.43135999999998"><g><svg viewBox="0 0 244.43135999999998 67.32703193277311" height="67.32703193277311" width="244.43135999999998"><g id="textblocktransform"><svg viewBox="0 0 244.43135999999998 67.32703193277311" height="67.32703193277311" width="244.43135999999998" id="textblock"><g><svg viewBox="0 0 244.43135999999998 67.32703193277311" height="67.32703193277311" width="244.43135999999998"><g transform="matrix(1,0,0,1,0,0)"><svg width="244.43135999999998" viewBox="4.44 -35.4 130.73 36.01" height="67.32703193277311" data-palette-color="#ffffff"><path d="M4.44 0L4.44-34.84 17.41-34.84Q18.8-34.84 20.13-34.66 21.46-34.47 22.64-34.01 23.83-33.54 24.8-32.75 25.78-31.96 26.5-30.71 27.22-29.47 27.61-27.73 28-26 28-23.66L28-23.66Q28-22.09 27.75-20.86 27.49-19.63 27.06-18.68 26.64-17.72 26.09-17.02 25.54-16.31 24.98-15.8L24.98-15.8Q23.63-14.62 21.95-14.16L21.95-14.16 21.95-14.11 29.3 0 22.61 0 16.09-12.79 10.3-12.79 10.3 0 4.44 0ZM10.3-18.31L17.36-18.31Q21.95-18.31 21.95-24L21.95-24Q21.95-25.49 21.62-26.53 21.29-27.56 20.67-28.2 20.04-28.83 19.17-29.11 18.29-29.39 17.21-29.39L17.21-29.39 10.3-29.39 10.3-18.31ZM47.78 0.61L47.78 0.61Q46.09 0.61 44.42 0.29 42.75-0.02 41.25-0.81 39.74-1.59 38.45-2.92 37.16-4.25 36.2-6.29 35.25-8.33 34.71-11.13 34.18-13.94 34.18-17.7L34.18-17.7Q34.18-21.31 34.79-24.04 35.4-26.76 36.42-28.74 37.45-30.71 38.82-31.99 40.18-33.28 41.7-34.03 43.21-34.79 44.77-35.1 46.34-35.4 47.78-35.4L47.78-35.4Q50.22-35.4 52.02-35.16 53.83-34.91 55.05-34.62L55.05-34.62Q56.47-34.28 57.47-33.84L57.47-33.84 57.47-29.64Q56.47-29.71 55.32-29.79L55.32-29.79Q54.34-29.83 53.09-29.9 51.83-29.96 50.46-29.96L50.46-29.96Q49.22-29.96 47.98-29.86 46.75-29.76 45.62-29.36 44.48-28.96 43.5-28.17 42.53-27.39 41.81-26.04 41.09-24.68 40.68-22.66 40.28-20.63 40.28-17.75L40.28-17.75Q40.28-14.72 40.7-12.57 41.11-10.42 41.84-8.98 42.58-7.54 43.55-6.71 44.53-5.88 45.68-5.46 46.82-5.03 48.07-4.92 49.31-4.81 50.56-4.81L50.56-4.81Q52.17-4.81 53.49-4.86 54.81-4.91 55.73-4.96L55.73-4.96Q56.83-5.03 57.71-5.1L57.71-5.1 57.71-0.9Q56.64-0.46 55.17-0.15L55.17-0.15Q53.9 0.15 52.06 0.38 50.22 0.61 47.78 0.61ZM64.59 0L64.59-34.84 74.75-34.84 81.2-13.84 81.39-13.84 88.06-34.84 98.04-34.84 98.04 0 92.21 0 92.21-29.39 92.06-29.39 91.4-27.2Q91.13-26.27 90.82-25.26 90.5-24.24 90.25-23.51L90.25-23.51 85.76-9.45 77-9.45 72.41-23.61Q72.16-24.34 71.85-25.33 71.53-26.32 71.26-27.22L71.26-27.22Q70.94-28.27 70.6-29.39L70.6-29.39 70.45-29.39 70.45 0 64.59 0ZM106.93 0L106.93-34.84 116.64-34.84 129.34-5.44 129.46-5.44Q129.44-6.32 129.41-7.23L129.41-7.23Q129.39-8.01 129.39-8.91 129.39-9.81 129.39-10.64L129.39-10.64 129.39-34.84 135.17-34.84 135.17 0 125.68 0 114.93-24.51Q114.49-25.54 114.1-26.42 113.71-27.29 113.44-27.95L113.44-27.95Q113.1-28.74 112.83-29.39L112.83-29.39 112.74-29.39 112.74 0 106.93 0Z" opacity="1" transform="matrix(1,0,0,1,0,0)" fill="#000000" class="wordmark-text-0" data-fill-palette-color="primary" id="text-0"></path></svg></g></svg></g></svg></g></svg></g></svg></g></svg></g></svg></g><path d="M203.87 83.936L203.87 26.535 9.741 26.535 9.741 220.665 203.87 220.665 203.87 163.264 197.799 163.264 197.799 214.593 15.813 214.593 15.813 32.607 197.799 32.607 197.799 83.936Z" fill="#000000" stroke="transparent" data-fill-palette-color="tertiary"></path></svg></g><defs></defs></svg><rect width="395.52" height="247.2" fill="none" stroke="none" visibility="hidden"></rect></g></svg></g></svg>